<svg version="1.1" xmlns="http://www.w3.org/2000/svg" viewBox="0 0 63.79810273189787 97.278975091549" width="63.79810273189787" height="97.278975091549" class="excalidraw-svg"><!-- svg-source:excalidraw --><metadata></metadata><defs><style class="style-fonts">
      </style></defs><g stroke-linecap="round"><g transform="translate(11.353412419616916 32.71881725738649) rotate(0 21.222345156140477 27.12852292309742)" fill-rule="evenodd"><path d="M1 1.13 L18.47 53.91 L43.93 -0.38 L1.2 0.91" stroke="none" stroke-width="0" fill="#d4af37" fill-rule="evenodd"></path><path d="M0 0 C7.96 20.28, 12.65 35.2, 19.72 54.56 M0 0 C4.98 15.44, 10.43 29.37, 19.72 54.56 M19.72 54.56 C29.31 34.53, 37.33 14.37, 42.44 -0.3 M19.72 54.56 C28.8 34.74, 37.59 13.73, 42.44 -0.3 M42.44 -0.3 C33.55 1.36, 20.29 -0.18, 0 0 M42.44 -0.3 C33.39 0.44, 24.17 -1.01, 0 0 M0 0 C0 0, 0 0, 0 0 M0 0 C0 0, 0 0, 0 0" stroke="#000000" stroke-width="1" fill="none"></path></g></g><mask></mask><g stroke-linecap="round" transform="translate(10 10) rotate(0 21.66666666666663 21.66666666666663)"><path d="M25.32 0.55 C29.72 0.84, 35.11 3.58, 38.11 6.93 C41.12 10.29, 43.33 15.9, 43.34 20.69 C43.35 25.48, 41.11 31.93, 38.2 35.67 C35.3 39.41, 30.42 42.22, 25.91 43.13 C21.4 44.04, 15.25 43.33, 11.13 41.13 C7.02 38.94, 2.83 34.33, 1.21 29.96 C-0.41 25.59, -0.18 19.3, 1.43 14.92 C3.03 10.53, 6.8 6.08, 10.86 3.66 C14.92 1.23, 23.17 0.84, 25.79 0.38 C28.4 -0.09, 26.51 0.49, 26.54 0.89 M17.6 -0.05 C21.8 -1.2, 27.81 0.79, 31.74 3.17 C35.67 5.55, 39.52 9.97, 41.18 14.21 C42.84 18.45, 42.97 24.39, 41.69 28.63 C40.41 32.86, 37.45 37.14, 33.5 39.61 C29.54 42.09, 22.72 44.05, 17.95 43.45 C13.19 42.86, 7.88 39.66, 4.93 36.03 C1.97 32.39, 0.26 26.24, 0.23 21.65 C0.19 17.06, 1.87 12.05, 4.69 8.47 C7.52 4.89, 15.13 1.34, 17.17 0.17 C19.21 -1, 16.81 1.19, 16.93 1.46" stroke="none" stroke-width="0" fill="#d4af37"></path><path d="M17.96 0.1 C22.29 -1.07, 28.5 0.07, 32.42 2.43 C36.35 4.79, 39.81 9.82, 41.51 14.23 C43.21 18.64, 43.99 24.56, 42.62 28.89 C41.25 33.22, 37.27 37.86, 33.28 40.19 C29.29 42.52, 23.29 43.59, 18.69 42.88 C14.09 42.16, 8.79 39.33, 5.66 35.9 C2.53 32.47, -0.01 26.89, -0.09 22.31 C-0.16 17.73, 2.12 12.16, 5.21 8.44 C8.3 4.73, 16.17 1.37, 18.45 0.02 C20.73 -1.33, 18.79 -0.12, 18.89 0.35 M19.81 -0.3 C24.2 -0.83, 30.19 1.8, 34.04 4.39 C37.89 6.98, 41.56 10.81, 42.91 15.23 C44.25 19.66, 44.05 26.58, 42.11 30.93 C40.17 35.28, 35.57 39.25, 31.27 41.33 C26.97 43.41, 20.75 44.54, 16.33 43.42 C11.91 42.3, 7.4 38.55, 4.73 34.63 C2.06 30.71, 0.17 24.53, 0.3 19.89 C0.43 15.26, 2.45 10.09, 5.5 6.84 C8.56 3.58, 16.27 1.32, 18.65 0.35 C21.04 -0.63, 19.72 0.69, 19.81 0.97" stroke="#000000" stroke-width="1" fill="none"></path></g><g stroke-linecap="round" transform="translate(25.1515151515149 24.848484848484873) rotate(0 5.757575757575751 5.909090909090878)"><path d="M6.54 -0.38 C7.65 -0.45, 9.15 0.29, 9.91 1.35 C10.67 2.41, 11.03 4.59, 11.1 5.97 C11.18 7.34, 11.07 8.58, 10.38 9.6 C9.7 10.62, 8.24 11.75, 7 12.08 C5.76 12.42, 3.99 12.21, 2.96 11.61 C1.92 11.01, 1.17 9.62, 0.79 8.48 C0.42 7.34, 0.43 6.03, 0.7 4.77 C0.96 3.52, 1.44 1.78, 2.39 0.97 C3.34 0.15, 5.56 -0.03, 6.4 -0.11 C7.24 -0.19, 7.48 0.36, 7.45 0.49 M6.57 0.58 C7.6 0.9, 8.86 1.69, 9.61 2.61 C10.36 3.52, 10.88 4.95, 11.06 6.06 C11.23 7.18, 11.49 8.26, 10.68 9.27 C9.88 10.29, 7.6 11.86, 6.2 12.16 C4.8 12.46, 3.23 11.86, 2.28 11.05 C1.33 10.24, 0.82 8.46, 0.49 7.3 C0.15 6.14, -0.08 5.24, 0.29 4.09 C0.66 2.95, 1.72 0.99, 2.73 0.44 C3.73 -0.12, 5.61 0.93, 6.31 0.78 C7.01 0.63, 6.86 -0.47, 6.93 -0.48" stroke="none" stroke-width="0" fill="#d4af37"></path><path d="M6.2 -0.3 C7.25 -0.23, 8.28 0.91, 9.23 1.83 C10.19 2.76, 11.63 4.05, 11.94 5.24 C12.26 6.44, 11.78 7.98, 11.12 9 C10.45 10.02, 9.16 10.95, 7.97 11.36 C6.77 11.76, 5.18 11.83, 3.95 11.43 C2.72 11.03, 1.15 10.02, 0.57 8.97 C0 7.91, 0.19 6.42, 0.49 5.09 C0.79 3.77, 1.47 1.88, 2.38 0.99 C3.28 0.1, 5.21 -0.16, 5.93 -0.23 C6.66 -0.29, 6.73 0.45, 6.72 0.59 M4.91 0.8 C6.04 0.49, 7.8 -0.29, 8.95 0.28 C10.09 0.86, 11.38 2.95, 11.77 4.24 C12.16 5.52, 11.82 6.77, 11.3 8.01 C10.78 9.25, 9.6 11.03, 8.63 11.69 C7.66 12.35, 6.62 12.32, 5.46 11.96 C4.3 11.6, 2.68 10.48, 1.67 9.53 C0.67 8.57, -0.38 7.42, -0.57 6.24 C-0.76 5.06, -0.39 3.38, 0.54 2.43 C1.47 1.48, 4.4 0.94, 5.01 0.53 C5.62 0.13, 4.15 -0.04, 4.19 -0.02" stroke="#000000" stroke-width="1" fill="none"></path></g></svg>