<svg version="1.1" xmlns="http://www.w3.org/2000/svg" viewBox="0 0 366 269.5" width="366" height="269.5" class="excalidraw-svg"><!-- svg-source:excalidraw --><metadata></metadata><defs><style class="style-fonts">
      </style></defs><g stroke-linecap="round" transform="translate(160.5 10) rotate(0 25.5 25.5)"><path d="M1.64 14.67 C1.64 14.67, 1.64 14.67, 1.64 14.67 M1.64 14.67 C1.64 14.67, 1.64 14.67, 1.64 14.67 M1.37 21.07 C6.06 15.71, 8.41 12.29, 15.81 4.47 M1.37 21.07 C4.49 16.54, 9.22 11.33, 15.81 4.47 M1.11 27.47 C6.95 17.68, 17.3 11.17, 22.11 3.32 M1.11 27.47 C8.13 20.5, 13.15 12.22, 22.11 3.32 M1.51 33.11 C9.94 20.96, 20.74 10.98, 28.41 2.17 M1.51 33.11 C9.63 24.61, 16.38 15.66, 28.41 2.17 M3.87 36.49 C12.25 29.54, 16.27 20.69, 34.05 1.77 M3.87 36.49 C13.64 23.55, 25.3 12.71, 34.05 1.77 M6.23 39.87 C18.67 26.71, 28.18 15.82, 37.07 4.4 M6.23 39.87 C17.64 26.46, 30.03 12.06, 37.07 4.4 M8.6 43.25 C19.76 31.32, 29.94 20.79, 40.09 7.02 M8.6 43.25 C19.63 29.93, 29.41 17.23, 40.09 7.02 M10.96 46.63 C19.44 38.93, 24.27 31.81, 43.76 8.89 M10.96 46.63 C18.61 37.44, 25.89 28.98, 43.76 8.89 M15.29 47.74 C24.71 35.49, 35.03 20.96, 46.78 11.52 M15.29 47.74 C27.32 32.5, 40.76 19.26, 46.78 11.52 M19.62 48.86 C31.11 36.41, 42.19 22.62, 48.49 15.65 M19.62 48.86 C26 42, 31.13 34.8, 48.49 15.65 M23.95 49.97 C31.65 40.6, 38.45 34.74, 49.54 20.54 M23.95 49.97 C30.29 41.54, 37.65 32.93, 49.54 20.54 M28.28 51.09 C35.61 42.55, 46.16 32.86, 50.59 25.43 M28.28 51.09 C36.35 41.85, 44.62 32.21, 50.59 25.43 M37.21 46.92 C41.42 43.58, 41.75 38.89, 52.95 28.8 M37.21 46.92 C42.02 40.51, 48.77 34.27, 52.95 28.8" stroke="#db964d" stroke-width="0.5" fill="none"></path><path d="M13.66 3.11 C18.21 0.37, 26.09 -1.38, 31.6 -0.08 C37.11 1.21, 43.44 6.35, 46.71 10.89 C49.98 15.44, 51.65 21.8, 51.22 27.19 C50.8 32.59, 48.07 39.36, 44.18 43.27 C40.29 47.19, 33.45 50.1, 27.87 50.69 C22.28 51.27, 15.15 49.8, 10.66 46.76 C6.16 43.72, 2.42 37.81, 0.92 32.46 C-0.58 27.1, -1.59 19.9, 1.66 14.64 C4.91 9.38, 15.99 3.3, 20.44 0.9 C24.89 -1.5, 28.34 -0.03, 28.36 0.23 M32.95 0.44 C38.29 1.92, 45.19 7.55, 48.05 12.25 C50.9 16.94, 50.87 23.24, 50.08 28.63 C49.28 34.01, 47.23 40.98, 43.28 44.56 C39.33 48.13, 31.85 50.06, 26.39 50.06 C20.93 50.07, 14.78 47.95, 10.54 44.6 C6.3 41.24, 2.04 35.03, 0.96 29.93 C-0.12 24.83, 1.43 18.62, 4.05 13.97 C6.67 9.32, 11.61 4.18, 16.68 2.01 C21.74 -0.15, 31.89 1.15, 34.44 0.97 C37 0.8, 32.46 0.51, 32 0.96" stroke="#000000" stroke-width="1" fill="none"></path></g><g stroke-linecap="round" transform="translate(162 208.5) rotate(0 25.5 25.5)"><path d="M8.75 6.28 C8.75 6.28, 8.75 6.28, 8.75 6.28 M8.75 6.28 C8.75 6.28, 8.75 6.28, 8.75 6.28 M0.61 21.73 C4.18 16.98, 10.48 11.16, 17.01 2.87 M0.61 21.73 C6.09 15.04, 12.71 8.46, 17.01 2.87 M1.66 26.62 C10.67 18.99, 18.01 9.22, 25.28 -0.55 M1.66 26.62 C6.18 19.73, 13.45 13.44, 25.28 -0.55 M2.06 32.26 C9.29 24.23, 17.33 16.31, 28.96 1.32 M2.06 32.26 C8.23 24.68, 15.55 15.46, 28.96 1.32 M3.11 37.15 C13.53 23.38, 27.55 7.98, 33.29 2.44 M3.11 37.15 C15.04 24.8, 26.51 11.48, 33.29 2.44 M5.47 40.53 C16.37 29.12, 30.03 14.63, 36.96 4.31 M5.47 40.53 C13.22 31.27, 22.22 21.32, 36.96 4.31 M8.49 43.16 C16.2 35.9, 25.31 25.9, 40.64 6.18 M8.49 43.16 C19.94 28.43, 31.89 14.97, 40.64 6.18 M11.51 45.78 C21.31 34.62, 31.33 20.37, 43.66 8.8 M11.51 45.78 C20 35.53, 30.5 25.13, 43.66 8.8 M14.53 48.4 C20.77 37.45, 32.54 28.19, 46.02 12.18 M14.53 48.4 C27.41 34.81, 40.68 20.32, 46.02 12.18 M18.86 49.52 C26.35 40.53, 31.24 34.55, 47.73 16.31 M18.86 49.52 C27.35 39.02, 37.41 27.8, 47.73 16.31 M24.5 49.12 C32.62 41.33, 38.82 33.84, 50.09 19.69 M24.5 49.12 C31.72 40.05, 40.91 31.93, 50.09 19.69 M29.49 49.48 C37.67 42.65, 45.45 31.72, 50.48 25.33 M29.49 49.48 C34.08 43.89, 38.87 38.29, 50.48 25.33 M34.48 49.84 C36.55 44.61, 44.03 42.47, 48.91 33.24 M34.48 49.84 C37.45 47.28, 40.07 42.59, 48.91 33.24" stroke="#db964d" stroke-width="0.5" fill="none"></path><path d="M25.62 -0.78 C31 -1.09, 38.37 2.85, 42.58 6.51 C46.78 10.17, 50 15.86, 50.87 21.18 C51.74 26.5, 50.63 33.75, 47.77 38.44 C44.92 43.12, 39.02 47.46, 33.73 49.29 C28.44 51.13, 21.11 51.34, 16.04 49.46 C10.97 47.58, 5.99 42.83, 3.31 37.99 C0.62 33.15, -0.94 25.67, -0.06 20.42 C0.81 15.17, 3.91 9.96, 8.56 6.5 C13.2 3.04, 24.44 0.68, 27.81 -0.33 C31.17 -1.35, 28.7 0.03, 28.74 0.39 M20.28 0.74 C25.25 -0.76, 31.28 -0.45, 36.2 1.97 C41.12 4.38, 47.45 10.25, 49.79 15.21 C52.12 20.18, 51.77 26.65, 50.24 31.77 C48.7 36.88, 45.09 42.83, 40.57 45.9 C36.05 48.98, 28.55 50.59, 23.12 50.23 C17.69 49.88, 11.74 47.58, 7.97 43.77 C4.21 39.96, 0.89 32.99, 0.53 27.37 C0.16 21.74, 2.86 14.59, 5.78 10.01 C8.69 5.43, 15.91 1.34, 18.03 -0.14 C20.15 -1.61, 17.99 0.85, 18.49 1.16" stroke="#000000" stroke-width="1" fill="none"></path></g><g stroke-linecap="round" transform="translate(305 98.5) rotate(0 25.5 25.5)"><path d="M1.04 16.81 C1.04 16.81, 1.04 16.81, 1.04 16.81 M1.04 16.81 C1.04 16.81, 1.04 16.81, 1.04 16.81 M1.44 22.45 C6.06 18, 11.95 9.56, 18.49 2.83 M1.44 22.45 C7.76 15.76, 13.09 8.62, 18.49 2.83 M1.17 28.85 C7.14 22.7, 11.52 16.36, 24.14 2.43 M1.17 28.85 C9.99 19.72, 17.02 10.02, 24.14 2.43 M2.23 33.73 C9.36 26.79, 15.87 17.98, 29.78 2.04 M2.23 33.73 C11.68 21.95, 23.31 11.44, 29.78 2.04 M4.59 37.11 C16.23 23.38, 27.34 11.03, 34.11 3.15 M4.59 37.11 C11.67 29.38, 18.3 22.48, 34.11 3.15 M6.95 40.49 C17.9 30.28, 24.07 18.1, 37.79 5.02 M6.95 40.49 C18.35 27.46, 28.26 15.72, 37.79 5.02 M9.31 43.87 C20.21 33.26, 30.92 21.44, 41.46 6.89 M9.31 43.87 C16.31 35.08, 25.19 27.26, 41.46 6.89 M11.68 47.25 C20.96 34.27, 32.34 22.49, 44.48 9.51 M11.68 47.25 C21.46 37.26, 29.51 25.79, 44.48 9.51 M16.66 47.61 C28.21 35.23, 37.48 24.87, 46.84 12.89 M16.66 47.61 C24.9 39.4, 30.92 30.63, 46.84 12.89 M20.99 48.73 C27.78 40.34, 38.48 29.83, 48.55 17.03 M20.99 48.73 C30.56 37.77, 40.37 26.94, 48.55 17.03 M25.33 49.84 C30.34 45.03, 36.06 35.81, 49.6 21.92 M25.33 49.84 C33.54 42.09, 40.31 32.8, 49.6 21.92 M30.97 49.45 C39.92 39.47, 44.76 31.02, 51.31 26.05 M30.97 49.45 C36.92 42.23, 44.38 34.41, 51.31 26.05 M40.55 44.52 C43.5 43.09, 43.89 38.74, 47.11 36.98 M40.55 44.52 C42.44 41.82, 45.13 39.88, 47.11 36.98" stroke="#db964d" stroke-width="0.5" fill="none"></path><path d="M31.52 1.14 C36.68 2.06, 42.59 5.72, 45.86 9.96 C49.12 14.21, 51.47 21.21, 51.14 26.62 C50.82 32.03, 47.72 38.39, 43.9 42.41 C40.09 46.42, 33.6 49.99, 28.26 50.72 C22.92 51.46, 16.43 49.82, 11.86 46.81 C7.28 43.8, 2.56 37.73, 0.81 32.67 C-0.94 27.61, -0.81 21.47, 1.35 16.45 C3.51 11.44, 8.62 5.2, 13.78 2.58 C18.93 -0.05, 28.62 0.86, 32.3 0.72 C35.97 0.57, 35.91 1.3, 35.84 1.71 M17.42 0.42 C22.31 -1.42, 31.21 -0.14, 36.39 1.96 C41.57 4.05, 46.01 8.26, 48.49 13 C50.98 17.74, 52.5 25.03, 51.3 30.41 C50.1 35.79, 45.66 41.72, 41.3 45.26 C36.93 48.8, 30.55 51.79, 25.1 51.65 C19.64 51.5, 12.6 48.3, 8.58 44.4 C4.56 40.5, 1.98 33.85, 0.99 28.24 C0 22.63, -0.01 15.28, 2.65 10.75 C5.3 6.22, 14.18 2.83, 16.93 1.06 C19.68 -0.71, 18.93 -0.41, 19.13 0.13" stroke="#000000" stroke-width="1" fill="none"></path></g><g stroke-linecap="round" transform="translate(10 101.5) rotate(0 25.5 25.5)"><path d="M1.83 13.51 C1.83 13.51, 1.83 13.51, 1.83 13.51 M1.83 13.51 C1.83 13.51, 1.83 13.51, 1.83 13.51 M1.56 19.91 C7.79 11.83, 12.82 6.9, 16.65 2.55 M1.56 19.91 C6.1 14.08, 9.57 10.5, 16.65 2.55 M1.3 26.31 C7.79 18.43, 17.65 6.47, 22.3 2.16 M1.3 26.31 C6.59 19.11, 12 13.08, 22.3 2.16 M1.7 31.95 C9.41 22.83, 19.65 10.73, 27.28 2.52 M1.7 31.95 C12.68 21.47, 22.12 8.79, 27.28 2.52 M4.06 35.33 C14.37 23.4, 20.4 15.59, 33.58 1.37 M4.06 35.33 C14.37 24.62, 23.54 12.45, 33.58 1.37 M5.77 39.46 C16.44 24.25, 30.24 10.9, 36.6 3.99 M5.77 39.46 C14.84 28.59, 25.17 17.15, 36.6 3.99 M8.13 42.84 C22.14 29.06, 31.85 12.53, 39.62 6.62 M8.13 42.84 C15.51 35.91, 22.1 27.12, 39.62 6.62 M9.84 46.98 C21.57 32.95, 33.1 18.37, 42.64 9.24 M9.84 46.98 C19.87 33.87, 31.12 21.27, 42.64 9.24 M14.17 48.09 C22.44 39.03, 26.11 33.17, 46.31 11.11 M14.17 48.09 C24.92 34.84, 37.18 21.46, 46.31 11.11 M18.5 49.21 C26.77 41.02, 34.6 30.12, 47.37 16 M18.5 49.21 C28.74 37.81, 38.34 26, 47.37 16 M23.49 49.57 C31.62 38.59, 39.63 29.41, 48.42 20.89 M23.49 49.57 C30.51 41.01, 37.66 34.12, 48.42 20.89 M28.47 49.93 C35.05 39.98, 44.73 30.59, 49.47 25.78 M28.47 49.93 C35.49 42.28, 42.89 32.76, 49.47 25.78 M36.74 46.51 C38.2 40.94, 43.61 38.66, 48.55 32.93 M36.74 46.51 C41.88 41.95, 45.6 35.89, 48.55 32.93" stroke="#db964d" stroke-width="0.5" fill="none"></path><path d="M16.08 2.09 C20.66 -0.24, 28.32 -0.16, 33.39 1.45 C38.46 3.05, 43.72 7.14, 46.49 11.71 C49.25 16.28, 50.63 23.49, 49.97 28.87 C49.31 34.26, 46.51 40.46, 42.53 44.03 C38.56 47.59, 31.62 49.9, 26.1 50.26 C20.58 50.62, 13.63 49.46, 9.42 46.18 C5.21 42.89, 2.07 36.03, 0.85 30.53 C-0.37 25.04, -1.26 18.34, 2.09 13.21 C5.44 8.09, 17.22 1.97, 20.95 -0.22 C24.69 -2.42, 24.63 -0.57, 24.51 0.06 M26.66 -0.07 C32 -0.39, 38.19 1.77, 42.34 5.19 C46.5 8.62, 50.68 15.03, 51.61 20.47 C52.54 25.92, 50.7 32.89, 47.92 37.85 C45.14 42.81, 40.08 48.26, 34.93 50.22 C29.79 52.19, 22.17 51.73, 17.03 49.64 C11.89 47.55, 7.11 42.62, 4.1 37.68 C1.09 32.74, -1.72 25.31, -1.04 19.99 C-0.36 14.67, 3.55 9.34, 8.17 5.76 C12.79 2.18, 23.85 -0.72, 26.67 -1.47 C29.49 -2.22, 25.31 0.37, 25.09 1.27" stroke="#000000" stroke-width="1" fill="none"></path></g><g stroke-linecap="round"><g transform="translate(60.5 129) rotate(0 122.5 -1)"><path d="M-0.94 0.88 C39.93 0.57, 204.68 -1.23, 245.71 -1.68 M0.77 0.3 C41.5 -0.41, 204.5 -3.51, 245.13 -3.63" stroke="#000000" stroke-width="1" fill="none"></path></g></g><mask></mask><g stroke-linecap="round"><g transform="translate(208.5 219) rotate(0 52 -38.5)"><path d="M0.71 0.32 C18.23 -12.63, 86.94 -63.81, 104.21 -76.81 M-0.38 -0.55 C17.08 -13.36, 86.03 -62.48, 103.37 -75.18" stroke="#000000" stroke-width="1" fill="none"></path></g></g><mask></mask><g stroke-linecap="round"><g transform="translate(209.5 48) rotate(0 53 29.5)"><path d="M0.21 0.19 C17.81 9.86, 88.69 48.69, 106.3 58.33 M-1.14 -0.76 C16.26 9.03, 87.82 49.58, 105.5 59.52" stroke="#000000" stroke-width="1" fill="none"></path></g></g><mask></mask><g stroke-linecap="round"><g transform="translate(49.41660469228327 103.96867276947432) rotate(0 54.29322285335701 -36.416979968694214)"><path d="M0.3 -0.67 C6.66 -10.71, 20.36 -48.01, 38.4 -60.06 C56.44 -72.12, 96.92 -70.79, 108.56 -73 M-1.01 1.6 C5.17 -8.34, 19.23 -46.8, 37.36 -59.03 C55.49 -71.26, 95.96 -69.52, 107.78 -71.78" stroke="#000000" stroke-width="1" fill="none"></path></g></g><mask></mask><g stroke-linecap="round"><g transform="translate(61.20231081410179 128.26124863075393) rotate(0 54.81831972187376 -37.128162032200535)"><path d="M-0.18 -0.96 C11.94 -2.82, 54.74 0.49, 72.98 -11.81 C91.22 -24.12, 103.29 -64.28, 109.25 -74.78 M-1.73 1.15 C10.2 -0.46, 53.68 2.12, 72.02 -10.36 C90.35 -22.85, 102.19 -63.13, 108.28 -73.74" stroke="#000000" stroke-width="1" fill="none"></path></g></g><mask></mask><g stroke-linecap="round"><g transform="translate(45.20573269740157 232.31782401084615) rotate(248.4880696083162 59.55397311814875 -40.2431113357622)"><path d="M-0.03 -0.17 C7.08 -11.7, 22.76 -56.67, 42.47 -70.15 C62.19 -83.64, 105.37 -79.42, 118.24 -81.09 M-1.5 -1.3 C5.43 -12.59, 20.96 -55.76, 41.32 -68.89 C61.69 -82.02, 107.53 -78.42, 120.68 -80.09" stroke="#000000" stroke-width="1" fill="none"></path></g></g><mask></mask><g stroke-linecap="round"><g transform="translate(58.71331194680647 200.82275959162234) rotate(243.76123507007392 62.64828583045147 -32.903609777819696)"><path d="M-0.39 -0.53 C12.71 -1.3, 57.5 6.03, 78.54 -4.8 C99.59 -15.63, 118.18 -55.16, 125.88 -65.5 M1.61 1.81 C15.09 1.2, 60.17 7.39, 80.8 -3.58 C101.44 -14.55, 118.1 -53.57, 125.43 -64.01" stroke="#000000" stroke-width="1" fill="none"></path></g></g><mask></mask></svg>