<svg version="1.1" xmlns="http://www.w3.org/2000/svg" viewBox="0 0 200.49674443841593 201.71607276170334" width="200.49674443841593" height="201.71607276170334" class="excalidraw-svg"><!-- svg-source:excalidraw --><metadata></metadata><defs><style class="style-fonts">
      </style></defs><g stroke-linecap="round" transform="translate(10 10) rotate(0 90.24837221920797 90.85803638085167)"><path d="M1.05 -1.54 L179.74 1.4 L180.24 180.12 L-1.68 182.14" stroke="none" stroke-width="0" fill="#c3894b"></path><path d="M0 0 C36.06 3.56, 74.81 1.8, 180.5 0 M0 0 C72.13 -0.5, 143.59 -1.58, 180.5 0 M180.5 0 C182.23 60.32, 182.37 117.5, 180.5 181.72 M180.5 0 C182.31 68.19, 181.99 138.23, 180.5 181.72 M180.5 181.72 C113.83 182.31, 45.7 179.25, 0 181.72 M180.5 181.72 C124.63 183.12, 69.35 183.27, 0 181.72 M0 181.72 C1.1 129.94, -1.44 78.61, 0 0 M0 181.72 C1.72 134.78, 1.08 88.63, 0 0" stroke="#000000" stroke-width="1" fill="none"></path></g><g stroke-linecap="round" transform="translate(33.23625672681101 27.45841523802079) rotate(0 62.757612757907765 73.06110141965397)"><path d="M-0.75 1.4 L125.26 -1.6 L123.83 146.55 L1.16 145.68" stroke="none" stroke-width="0" fill="white"></path><path d="M0 0 C25.12 -1.08, 53.3 -0.01, 125.52 0 M0 0 C45.62 -1.22, 90.07 -0.74, 125.52 0 M125.52 0 C128.83 49.41, 128.43 99.61, 125.52 146.12 M125.52 0 C127.1 49.02, 127.41 97.09, 125.52 146.12 M125.52 146.12 C96.35 145.75, 65.08 145.44, 0 146.12 M125.52 146.12 C83.43 147.9, 40.54 147.38, 0 146.12 M0 146.12 C-2.07 96.28, -2.17 45.84, 0 0 M0 146.12 C-0.83 88.52, -0.06 31, 0 0" stroke="#000000" stroke-width="1" fill="none"></path></g><g stroke-linecap="round" transform="translate(54.3625167324559 84.59594327134005) rotate(0 8.638826139521441 43.087316221847175)"><path d="M-0.13 -0.8 L16.44 0.21 L17.86 85.95 L-0.4 86.06" stroke="none" stroke-width="0" fill="#c3894b"></path><path d="M0 0 C7.6 0.49, 14.04 0.59, 17.28 0 M0 0 C6.22 0.02, 12.41 0.44, 17.28 0 M17.28 0 C18.49 33.56, 18.03 66.76, 17.28 86.17 M17.28 0 C17.86 19.7, 17.18 39.79, 17.28 86.17 M17.28 86.17 C10.74 85.37, 4.38 86, 0 86.17 M17.28 86.17 C10.77 86.4, 4.58 86.63, 0 86.17 M0 86.17 C-0.28 61.47, 1.09 38.62, 0 0 M0 86.17 C0.37 65.13, -0.09 45.2, 0 0" stroke="#000000" stroke-width="1" fill="none"></path></g><g stroke-linecap="round" transform="translate(86.28807237304568 56.905875040985165) rotate(0 8.84376907872641 56.49969302092529)"><path d="M-0.84 0.21 L18.27 -0.22 L17.28 112.88 L0.21 113.77" stroke="none" stroke-width="0" fill="#c3894b"></path><path d="M0 0 C5.89 0.56, 11.23 0.56, 17.69 0 M0 0 C4.53 0.41, 9.09 0.44, 17.69 0 M17.69 0 C18.46 35.68, 17.42 70.27, 17.69 113 M17.69 0 C17.83 39.22, 18.53 78.07, 17.69 113 M17.69 113 C13.96 112.81, 10.21 113.2, 0 113 M17.69 113 C11.02 113.42, 3.91 112.85, 0 113 M0 113 C1.17 81.91, -0.35 49.78, 0 0 M0 113 C-0.49 84.23, -0.36 54.37, 0 0" stroke="#000000" stroke-width="1" fill="none"></path></g><g stroke-linecap="round" transform="translate(117.75819925984706 101.03692128311297) rotate(0 8.00122588421712 34.8668272159606)"><path d="M0.58 -0.22 L15.6 -0.12 L16.21 70.51 L0.08 70.04" stroke="none" stroke-width="0" fill="#c3894b"></path><path d="M0 0 C6.15 0.5, 11 0.13, 16 0 M0 0 C5.04 0.32, 9.46 0.24, 16 0 M16 0 C15.41 25.34, 16.56 50.54, 16 69.73 M16 0 C16.21 20.73, 15.45 40.93, 16 69.73 M16 69.73 C13.15 69.98, 9.84 69.58, 0 69.73 M16 69.73 C10.55 69.64, 5.19 69.62, 0 69.73 M0 69.73 C-0.92 53.63, -0.74 38.53, 0 0 M0 69.73 C0.07 53.77, -0.29 38.71, 0 0" stroke="#000000" stroke-width="1" fill="none"></path></g></svg>